<svg width="165" height="220" viewBox="0 0 165 220" fill="none" xmlns="http://www.w3.org/2000/svg">
<rect width="165" height="220" fill="#D12F26"/>
<path d="M68 103.938C68 102.363 68.6256 100.853 69.7391 99.7391C70.8526 98.6256 72.3628 98 73.9375 98H90.5625C92.1372 98 93.6474 98.6256 94.7609 99.7391C95.8744 100.853 96.5 102.363 96.5 103.938V115.812C96.5 117.387 95.8744 118.897 94.7609 120.011C93.6474 121.124 92.1372 121.75 90.5625 121.75H73.9375C72.3628 121.75 70.8526 121.124 69.7391 120.011C68.6256 118.897 68 117.387 68 115.812V103.938ZM78.6875 104.698V115.053C78.6875 115.646 79.3382 116.01 79.8441 115.701L87.5843 110.97C87.772 110.855 87.9271 110.695 88.0347 110.503C88.1423 110.311 88.1989 110.095 88.1989 109.875C88.1989 109.655 88.1423 109.439 88.0347 109.247C87.9271 109.055 87.772 108.895 87.5843 108.78L79.8418 104.051C79.7266 103.982 79.5949 103.944 79.4603 103.941C79.3256 103.939 79.1927 103.973 79.0753 104.039C78.9579 104.105 78.8601 104.201 78.7919 104.317C78.7238 104.433 78.6877 104.565 78.6875 104.7V104.698Z" fill="#E3CECD"/>
</svg>
