<svg width="242" height="58" viewBox="0 0 242 58" fill="none" xmlns="http://www.w3.org/2000/svg">
<path d="M73.7148 21.9805L73.873 24.1074C75.2207 22.4551 77.043 21.6289 79.3398 21.6289C81.7891 21.6289 83.4707 22.5957 84.3848 24.5293C85.7207 22.5957 87.625 21.6289 90.0977 21.6289C92.1602 21.6289 93.6953 22.2324 94.7031 23.4395C95.7109 24.6348 96.2148 26.4395 96.2148 28.8535V41H91.1172V28.8711C91.1172 27.793 90.9062 27.0078 90.4844 26.5156C90.0625 26.0117 89.3184 25.7598 88.252 25.7598C86.7285 25.7598 85.6738 26.4863 85.0879 27.9395L85.1055 41H80.0254V28.8887C80.0254 27.7871 79.8086 26.9902 79.375 26.498C78.9414 26.0059 78.2031 25.7598 77.1602 25.7598C75.7188 25.7598 74.6758 26.3574 74.0312 27.5527V41H68.9512V21.9805H73.7148Z" fill="#4E545E"/>
<path d="M99.3438 31.3145C99.3438 29.4277 99.707 27.7461 100.434 26.2695C101.16 24.793 102.203 23.6504 103.562 22.8418C104.934 22.0332 106.521 21.6289 108.326 21.6289C110.893 21.6289 112.984 22.4141 114.602 23.9844C116.23 25.5547 117.139 27.6875 117.326 30.3828L117.361 31.6836C117.361 34.6016 116.547 36.9453 114.918 38.7148C113.289 40.4727 111.104 41.3516 108.361 41.3516C105.619 41.3516 103.428 40.4727 101.787 38.7148C100.158 36.957 99.3438 34.5664 99.3438 31.543V31.3145ZM104.424 31.6836C104.424 33.4883 104.764 34.8711 105.443 35.832C106.123 36.7812 107.096 37.2559 108.361 37.2559C109.592 37.2559 110.553 36.7871 111.244 35.8496C111.936 34.9004 112.281 33.3887 112.281 31.3145C112.281 29.5449 111.936 28.1738 111.244 27.2012C110.553 26.2285 109.58 25.7422 108.326 25.7422C107.084 25.7422 106.123 26.2285 105.443 27.2012C104.764 28.1621 104.424 29.6562 104.424 31.6836Z" fill="#4E545E"/>
<path d="M127.328 34.7949L130.861 21.9805H136.17L129.754 41H124.902L118.486 21.9805H123.795L127.328 34.7949Z" fill="#4E545E"/>
<path d="M143.781 41H138.684V21.9805H143.781V41ZM138.385 17.0586C138.385 16.2969 138.637 15.6699 139.141 15.1777C139.656 14.6855 140.354 14.4395 141.232 14.4395C142.1 14.4395 142.791 14.6855 143.307 15.1777C143.822 15.6699 144.08 16.2969 144.08 17.0586C144.08 17.832 143.816 18.4648 143.289 18.957C142.773 19.4492 142.088 19.6953 141.232 19.6953C140.377 19.6953 139.686 19.4492 139.158 18.957C138.643 18.4648 138.385 17.832 138.385 17.0586Z" fill="#4E545E"/>
<path d="M156.736 41.3516C153.947 41.3516 151.674 40.4961 149.916 38.7852C148.17 37.0742 147.297 34.7949 147.297 31.9473V31.4551C147.297 29.5449 147.666 27.8398 148.404 26.3398C149.143 24.8281 150.186 23.668 151.533 22.8594C152.893 22.0391 154.439 21.6289 156.174 21.6289C158.775 21.6289 160.82 22.4492 162.309 24.0898C163.809 25.7305 164.559 28.0566 164.559 31.0684V33.1426H152.447C152.611 34.3848 153.104 35.3809 153.924 36.1309C154.756 36.8809 155.805 37.2559 157.07 37.2559C159.027 37.2559 160.557 36.5469 161.658 35.1289L164.154 37.9238C163.393 39.002 162.361 39.8457 161.061 40.4551C159.76 41.0527 158.318 41.3516 156.736 41.3516ZM156.156 25.7422C155.148 25.7422 154.328 26.082 153.695 26.7617C153.074 27.4414 152.676 28.4141 152.5 29.6797H159.566V29.2754C159.543 28.1504 159.238 27.2832 158.652 26.6738C158.066 26.0527 157.234 25.7422 156.156 25.7422Z" fill="#4E545E"/>
<path d="M171.027 38.3457H182.154V41H167.055V38.6094L177.549 24.6699H167.213V21.9805H181.627V24.2832L171.027 38.3457Z" fill="#4E545E"/>
<path d="M184.686 31.3145C184.686 29.4512 185.049 27.7754 185.775 26.2871C186.514 24.7988 187.533 23.6504 188.834 22.8418C190.146 22.0332 191.641 21.6289 193.316 21.6289C195.906 21.6289 197.998 22.5254 199.592 24.3184C201.197 26.1113 202 28.4961 202 31.4727V31.7012C202 33.5527 201.643 35.2168 200.928 36.6934C200.225 38.1582 199.211 39.3008 197.887 40.1211C196.574 40.9414 195.062 41.3516 193.352 41.3516C190.773 41.3516 188.682 40.4551 187.076 38.6621C185.482 36.8691 184.686 34.4961 184.686 31.543V31.3145ZM187.955 31.7012C187.955 33.8105 188.441 35.5039 189.414 36.7812C190.398 38.0586 191.711 38.6973 193.352 38.6973C195.004 38.6973 196.316 38.0527 197.289 36.7637C198.262 35.4629 198.748 33.6465 198.748 31.3145C198.748 29.2285 198.25 27.541 197.254 26.252C196.27 24.9512 194.957 24.3008 193.316 24.3008C191.711 24.3008 190.416 24.9395 189.432 26.2168C188.447 27.4941 187.955 29.3223 187.955 31.7012Z" fill="#4E545E"/>
<path d="M209.154 21.9805L209.26 24.3711C210.713 22.543 212.611 21.6289 214.955 21.6289C218.975 21.6289 221.002 23.8965 221.037 28.4316V41H217.785V28.4141C217.773 27.043 217.457 26.0293 216.836 25.373C216.227 24.7168 215.271 24.3887 213.971 24.3887C212.916 24.3887 211.99 24.6699 211.193 25.2324C210.396 25.7949 209.775 26.5332 209.33 27.4473V41H206.078V21.9805H209.154Z" fill="#4E545E"/>
<path d="M233.834 41.3516C231.256 41.3516 229.158 40.5078 227.541 38.8203C225.924 37.1211 225.115 34.8535 225.115 32.0176V31.4199C225.115 29.5332 225.473 27.8516 226.188 26.375C226.914 24.8867 227.922 23.7266 229.211 22.8945C230.512 22.0508 231.918 21.6289 233.43 21.6289C235.902 21.6289 237.824 22.4434 239.195 24.0723C240.566 25.7012 241.252 28.0332 241.252 31.0684V32.4219H228.367C228.414 34.2969 228.959 35.8145 230.002 36.9746C231.057 38.123 232.393 38.6973 234.01 38.6973C235.158 38.6973 236.131 38.4629 236.928 37.9941C237.725 37.5254 238.422 36.9043 239.02 36.1309L241.006 37.6777C239.412 40.127 237.021 41.3516 233.834 41.3516ZM233.43 24.3008C232.117 24.3008 231.016 24.7812 230.125 25.7422C229.234 26.6914 228.684 28.0273 228.473 29.75H238V29.5039C237.906 27.8516 237.461 26.5742 236.664 25.6719C235.867 24.7578 234.789 24.3008 233.43 24.3008Z" fill="#4E545E"/>
<path d="M7.25 19.9375C7.25 17.534 8.2048 15.2289 9.90434 13.5293C11.6039 11.8298 13.909 10.875 16.3125 10.875H41.6875C44.091 10.875 46.3961 11.8298 48.0957 13.5293C49.7952 15.2289 50.75 17.534 50.75 19.9375V38.0625C50.75 40.466 49.7952 42.7711 48.0957 44.4707C46.3961 46.1702 44.091 47.125 41.6875 47.125H16.3125C13.909 47.125 11.6039 46.1702 9.90434 44.4707C8.2048 42.7711 7.25 40.466 7.25 38.0625V19.9375ZM23.5625 21.0975V36.9025C23.5625 37.8088 24.5557 38.3634 25.3279 37.8921L37.1418 30.6711C37.4283 30.4964 37.665 30.2509 37.8293 29.9582C37.9936 29.6656 38.0799 29.3356 38.0799 29C38.0799 28.6644 37.9936 28.3344 37.8293 28.0418C37.665 27.7491 37.4283 27.5036 37.1418 27.3289L25.3243 20.1115C25.1485 20.0048 24.9475 19.9468 24.742 19.9434C24.5364 19.9399 24.3336 19.9912 24.1544 20.0919C23.9751 20.1925 23.8259 20.3391 23.7219 20.5164C23.6179 20.6937 23.5629 20.8955 23.5625 21.1011V21.0975Z" fill="#D12F26"/>
</svg>
